<svg xmlns="http://www.w3.org/2000/svg" xmlns:xlink="http://www.w3.org/1999/xlink"  viewBox="0 0 421.68 431"><defs><linearGradient id="eb63e7f3-4a73-4413-8a8c-b758f471becd" x1="5035.85" y1="240.88" x2="5215.87" y2="240.88" gradientTransform="matrix(-1, 0, 0, 1, 5337.45, 0)" gradientUnits="userSpaceOnUse"><stop offset="0" stop-color="#2b3582"/><stop offset="1" stop-color="#150e42"/></linearGradient><linearGradient id="a7b5a2ae-f69a-411e-b0f0-88e44cdde88e" x1="5855.76" y1="377.51" x2="5882.05" y2="377.51" gradientTransform="translate(-5716.16)" gradientUnits="userSpaceOnUse"><stop offset="0" stop-color="#53d8ff"/><stop offset="1" stop-color="#3840f7"/></linearGradient><linearGradient id="a6d1003e-26f9-4bc0-abb9-c05a1494c8e4" x1="5855.76" y1="372.36" x2="5881.31" y2="372.36" gradientTransform="translate(-5716.16)" xlink:href="#eb63e7f3-4a73-4413-8a8c-b758f471becd"/><linearGradient id="e043cbcc-a73c-49ff-8791-902a8b5bd6ae" x1="5858.19" y1="365.17" x2="5865.6" y2="365.17" gradientTransform="translate(-5716.16)" gradientUnits="userSpaceOnUse"><stop offset="0" stop-color="#f9b776"/><stop offset="1" stop-color="#f47960"/></linearGradient><linearGradient id="b500a764-9201-45cc-a492-c40a6ed97ec6" x1="5803.36" y1="376.95" x2="5813.43" y2="376.95" xlink:href="#a7b5a2ae-f69a-411e-b0f0-88e44cdde88e"/><linearGradient id="b56036ff-c626-4c1d-ae63-342d1bbaa63c" x1="5803.43" y1="369.19" x2="5818.22" y2="369.19" gradientTransform="translate(-5716.16)" xlink:href="#eb63e7f3-4a73-4413-8a8c-b758f471becd"/><linearGradient id="a5e31aa9-3f0a-4689-af02-5af720dc6174" x1="5811.12" y1="359" x2="5819.97" y2="359" xlink:href="#e043cbcc-a73c-49ff-8791-902a8b5bd6ae"/><linearGradient id="fd46b087-7ba5-4e9b-acad-0fce0baec671" x1="5817.64" y1="250.82" x2="5947.55" y2="250.82" gradientTransform="translate(-5716.16)" xlink:href="#eb63e7f3-4a73-4413-8a8c-b758f471becd"/><linearGradient id="ef523628-9a60-452e-ad9c-3a316c33d5d6" x1="5933.68" y1="193.22" x2="6066.37" y2="193.22" gradientTransform="translate(-5716.16)" xlink:href="#eb63e7f3-4a73-4413-8a8c-b758f471becd"/></defs><title>Asset 5</title><g id="a57f9115-5c75-488a-9b80-a180984477c5" data-name="Layer 2"><g id="ab8a0911-0db9-45a6-94d6-c46349fdefbc" data-name="Layer 1"><path d="M420.36,268.29C432.23,388.53,363.34,431,243.15,431S15.9,333.53,4,213.29,139.11,0,259.3,0,408.5,148.06,420.36,268.29Z" style="fill:#3b9ddc;opacity:0.1"/><path d="M404.44,220.91C415.65,334.56,329.2,426.7,211.33,426.7S11.88,403.44.67,289.78,120.19.89,293.92,10.3C412.24,16.71,393.22,107.26,404.44,220.91Z" style="fill:#3b9ddc;opacity:0.1"/><path d="M298.66,114.82c.95,44.73,4,199,2.56,253.68-.16,5.8-4.13,10.45-9.08,10.63-24.49.94-114.26,3.32-154.31,1.35-8.34-.41-15-8.31-15.15-18.08-.83-46.95-2.67-179,1.7-239.48.52-7.25,5.38-13,11.57-13.74,26.67-3.12,116.82-10.75,151.43-8.13C293.62,101.53,298.51,107.51,298.66,114.82Z" style="fill:url(#eb63e7f3-4a73-4413-8a8c-b758f471becd)"/><path d="M287.74,128.54c1.31,36.11,5.47,156.21,4.15,200.62-.19,6.49-4.56,11.74-10.11,12.12-22.82,1.56-100.68,5-134.15,1.87-6-.56-10.76-6.27-11.08-13.33-1.7-36.83-6.57-148.66-5.3-192.58.2-7,4.84-12.72,10.8-13.35,24.69-2.59,107.43-8.76,135.87-7C283.26,117.28,287.51,122.29,287.74,128.54Z" style="fill:#fbaa19"/><path d="M238.14,108.87h0a2.44,2.44,0,0,1-2.08,2.58c-5.79.35-22.08,1.35-29.36,1.85a2.48,2.48,0,0,1-2.29-3.07l.05-.28a2.35,2.35,0,0,1,2-2.08c4.92-.53,19.77-2,29.61-1.58A2.43,2.43,0,0,1,238.14,108.87Z" style="fill:#fff;opacity:0.5"/><path d="M145.89,190.65l-.29-42.2c0-5.11,3.25-9.34,7.48-9.66l109.78-8.26c4.45-.34,8.05,3.8,8.25,9.17,0,0,4.94,127.38,4.94,128.93h0l1.88,50c.2,5.38-3.28,9.91-7.75,10L155,332.2c-4.46.13-8.14-4.85-8.18-10.22l-.53-79.16h0l-.36-52.17Z" style="fill:#fff;opacity:0.4"/><path d="M228.63,255.58l35.78-26.22-35.88-29.12a2.42,2.42,0,0,1,3.05-3.76l38.31,31.09a2.41,2.41,0,0,1-.09,3.83l-38.31,28.08a2.41,2.41,0,0,1-3.38-.52A2.41,2.41,0,0,1,228.63,255.58Z" style="fill:#fff"/><path d="M152.72,227.57,191,196.48a2.42,2.42,0,1,1,3.05,3.76l-35.87,29.12L194,255.58a2.41,2.41,0,0,1,.52,3.38,2.41,2.41,0,0,1-3.38.52L152.82,231.4a2.4,2.4,0,0,1-1-1.89A2.43,2.43,0,0,1,152.72,227.57Z" style="fill:#fff"/><path d="M204.53,189.61a2.41,2.41,0,0,1,2.82,1.93l14.15,75.19a2.42,2.42,0,0,1-1.93,2.83,2.17,2.17,0,0,1-.88,0,2.42,2.42,0,0,1-1.95-1.93l-14.14-75.2A2.4,2.4,0,0,1,204.53,189.61Z" style="fill:#fff"/><path d="M165.15,376.24c-4.51.39-12.32,1-18.48,1.29-3.71.17-5.84-.2-7.07-.69,0,.14,0,.27,0,.39a1.29,1.29,0,0,0,1.22,1.21,216,216,0,0,0,24.19,0,.91.91,0,0,0,.74-1.36A6.78,6.78,0,0,0,165.15,376.24Z" style="fill:url(#a7b5a2ae-f69a-411e-b0f0-88e44cdde88e)"/><path d="M146.67,377.53c6.16-.27,14-.9,18.48-1.29-4.43-5.43-18.48-9.09-18.48-9.09h-4a16.64,16.64,0,0,0-3.1,9.69C140.83,377.33,143,377.7,146.67,377.53Z" style="fill:url(#a6d1003e-26f9-4bc0-abb9-c05a1494c8e4)"/><path d="M142,360.67l.37,7.35a1.69,1.69,0,0,0,1.43,1.58,6.69,6.69,0,0,0,3-.25,2,2,0,0,0,1.33-1.53l1.28-7.15Z" style="fill:url(#e043cbcc-a73c-49ff-8791-902a8b5bd6ae)"/><path d="M90.48,377.48a3.57,3.57,0,0,1-3.21-2.37v0A2.54,2.54,0,0,0,89,378a11.08,11.08,0,0,0,4.73.74,4.7,4.7,0,0,0,3.55-1.64h0C95.8,377.85,93.74,377.93,90.48,377.48Z" style="fill:url(#b500a764-9201-45cc-a492-c40a6ed97ec6)"/><path d="M99.69,360.62H96.41c-5-.1-8.11,10.41-9.14,14.49a3.57,3.57,0,0,0,3.21,2.37c3.26.45,5.32.37,6.79-.36,2.7-3.55,4-8.74,4.67-11.77A4.13,4.13,0,0,0,99.69,360.62Z" style="fill:url(#b56036ff-c626-4c1d-ae63-342d1bbaa63c)"/><path d="M96.83,353.8,95,361a2,2,0,0,0,1,2.22,7,7,0,0,0,3.76.91,1.64,1.64,0,0,0,1.34-1.09l2.67-7.61Z" style="fill:url(#a5e31aa9-3f0a-4689-af02-5af720dc6174)"/><path d="M94.67,355.89c2.26,2,9.61,2.27,9.61,2.27,26.5-63.59,37.33-72.62,37.33-72.62-3.82,24-.61,77.13-.61,77.13,4.37,1.93,10,0,10,0A409,409,0,0,1,164.54,262.1c-17.91-.4-27.43-6.53-30.54-9C119.07,277.17,94.67,355.89,94.67,355.89Z" style="fill:#5054a4"/><path d="M138.54,180c-3.39,16.91-2.17,47.17-1.37,61,.22,3.88-2.49,9.26-4.68,12.93a1.14,1.14,0,0,0,.47,1.61c3.66,1.89,16.08,7.72,30.47,8.45a2,2,0,0,0,2.06-1.53c10.68-39.85,23.07-65.32,23.07-65.32C174.88,175.23,138.54,180,138.54,180Z" style="fill:#741443"/><path d="M143.42,284a.88.88,0,0,1-.44-.12.85.85,0,0,1-.28-1.17,26.68,26.68,0,0,1,10.5-9.12.87.87,0,0,1,1.14.4.85.85,0,0,1-.4,1.13,25.22,25.22,0,0,0-9.79,8.48A.85.85,0,0,1,143.42,284Z" style="fill:#212950"/><path d="M117.28,228.5c1.09,7.88,4.31,16.47,10.74,25.59l2.45-2a75.7,75.7,0,0,1-1.22-24.46C125.28,226.87,120.59,227.67,117.28,228.5Z" style="fill:#d37f59"/><path d="M142.33,200.84,138.54,180s-25.29,19.34-21.26,48.52c3.31-.83,8-1.63,12-.86C130.41,218.28,133.86,208.11,142.33,200.84Z" style="fill:#741443"/><path d="M188.56,197.09l-9.76,21c1.58,12.69,8.4,18.18,15.75,20.29a44.66,44.66,0,0,1,3.28-13.7C188.43,215,188.56,197.09,188.56,197.09Z" style="fill:#741443"/><path d="M197.83,224.71a44.66,44.66,0,0,0-3.28,13.7c19.62,7.61,24.81-7.15,24.81-7.15l-3.63-.64C207.54,231.48,201.83,228.84,197.83,224.71Z" style="fill:#d37f59"/><path d="M179.57,171.13l-4.72,17.33c-.53,1.94-2.52,1.86-4.5,2.24-3.44.67-5.44-1.33-6.8-3.1-1.63-2.13-3.09-4.31-1.6-6.53l9.8-14.61Z" style="fill:#c67555"/><path d="M228.35,219.66l-120.78,44a9.24,9.24,0,0,0-5.25,12.52l.36.8a8.6,8.6,0,0,0,11.44,4.25l117.27-54.25Z" style="fill:url(#fd46b087-7ba5-4e9b-acad-0fce0baec671)"/><ellipse cx="283.86" cy="193.22" rx="59.62" ry="58.55" style="fill:#fff;opacity:0.15"/><path d="M350.21,193.22c0,36-29.71,65.14-66.35,65.14s-66.34-29.16-66.34-65.14,29.7-65.15,66.34-65.15S350.21,157.24,350.21,193.22Zm-9.75,0c0-30.7-25.34-55.58-56.6-55.58s-56.59,24.88-56.59,55.58,25.34,55.58,56.59,55.58S340.46,223.91,340.46,193.22Z" style="fill:url(#ef523628-9a60-452e-ad9c-3a316c33d5d6)"/><path d="M222.57,201.42a.58.58,0,0,1-.58-.5c-.19-1.54-.33-3.11-.41-4.69a.59.59,0,0,1,.55-.6.59.59,0,0,1,.6.55c.08,1.54.21,3.09.41,4.59a.58.58,0,0,1-.5.64ZM223,183.2h-.1a.57.57,0,0,1-.47-.66A60.45,60.45,0,0,1,226,170.25h0A62.12,62.12,0,0,1,283.87,132a63,63,0,0,1,33.48,9.56.58.58,0,0,1,.18.8.57.57,0,0,1-.79.18,61.79,61.79,0,0,0-32.87-9.39,61,61,0,0,0-56.76,37.55h0a58.71,58.71,0,0,0-3.51,12A.58.58,0,0,1,223,183.2Z" style="fill:#5054a4"/><path d="M129.46,251.75l11.42-.93,4.94,4.56s-1.17,1.62-4.82.69a52.5,52.5,0,0,0-8.67-1.16s-5.05,2.28-5.11-2Z" style="fill:#d37f59"/><path d="M217.9,234c1,.77,4.37-.84,6.44-2a2.39,2.39,0,0,0,1.16-2.81c-.5-1.57-1.33-3.6-2.36-3.86C221.45,224.91,213.83,230.78,217.9,234Z" style="fill:#d37f59"/><path d="M110,279.63a.39.39,0,0,1-.18,0c-4.79-1.65-5.91-4.49-6-6.58a7.32,7.32,0,0,1,4.77-7.05L123,260.3a.59.59,0,0,1,.75.33.58.58,0,0,1-.33.75L109,267a6.17,6.17,0,0,0-4,5.93c.11,2.52,1.87,4.39,5.22,5.55a.58.58,0,0,1-.19,1.12Z" style="fill:#5054a4"/><path d="M127.72,259.67a.56.56,0,0,1-.53-.36.58.58,0,0,1,.32-.75l1.88-.73a.57.57,0,0,1,.75.33.58.58,0,0,1-.33.74l-1.88.73A.52.52,0,0,1,127.72,259.67Z" style="fill:#5054a4"/><path d="M180.59,154.12s3.9,9,4.16,13.67,1.27,7.75-4.16,8.7-10-1.76-12.51-6.45c0,0-3.89-7.22-3-10.18.48-1.65,2.7-6.4,6.84-7.49C175.15,151.51,180.59,154.12,180.59,154.12Z" style="fill:#d37f59"/><path d="M184.75,167.79a10.49,10.49,0,0,1,0,2.16c-.07-.82-.43-1.83-1.17-2.06-1.06-.32-5.73.06-7,1.14-.65.57-.78,1.91-.77,2.95-4-1.2-4.67-5.13-5.36-5.83-6.3-6.4-2.38,3.89-2.38,3.89,2.48,4.69,7.07,7.4,12.51,6.45S185,172.49,184.75,167.79Zm-4.67,4.44a10.69,10.69,0,0,1-3.77-.11,7.26,7.26,0,0,1,1.2-2.06c.77-.85,5.13-1.87,6.07-.81a9.17,9.17,0,0,1,.82,1.39C183.87,171.41,182.67,171.91,180.08,172.23Z" style="fill:#212950;opacity:0.5"/><path d="M169.94,166.37h.69s-2.93-6.59-1.72-9c3-6,9-4,12-3-1-4-3.27-5.87-8-5-6.71,1.24-11,4-11,11,0,3.67,5.54,11,6.17,10.88a.37.37,0,0,0,.28-.38l-.25-4.11a.36.36,0,0,1,.37-.39Z" style="fill:#383b49"/><path d="M170.11,167.53c-.14-1.44-1.49-5.72-4.06-4.12s1.69,7.81,3.4,6.63C170,169.67,170.17,168.18,170.11,167.53Z" style="fill:#d37f59"/></g></g></svg>