<svg width="30" height="30" viewBox="0 0 30 30">
  <title>Ali Website Assets</title>
  <path d="M26.54,8.64a13.27,13.27,0,0,0-4.85-4.85A13,13,0,0,0,15,2,13,13,0,0,0,8.31,3.79,13.27,13.27,0,0,0,3.46,8.64a13,13,0,0,0-1.79,6.69,12.92,12.92,0,0,0,2.55,7.83A13,13,0,0,0,10.78,28a.77.77,0,0,0,.7-.12.67.67,0,0,0,.22-.52s0-.34,0-.93V24.85l-.4.07a4.61,4.61,0,0,1-1,.06,6.34,6.34,0,0,1-1.2-.12A2.68,2.68,0,0,1,8,24.34a2.24,2.24,0,0,1-.76-1.07L7,22.87A4.56,4.56,0,0,0,6.47,22a2.22,2.22,0,0,0-.75-.66l-.12-.09A.91.91,0,0,1,5.37,21a1.11,1.11,0,0,1-.16-.24.15.15,0,0,1,.09-.2,1.13,1.13,0,0,1,.5-.08l.35.06A2.41,2.41,0,0,1,7,21a2.79,2.79,0,0,1,.84.9,3.13,3.13,0,0,0,1,1.09,2.05,2.05,0,0,0,1.14.37,5.66,5.66,0,0,0,1-.08,3.27,3.27,0,0,0,.78-.27,2.78,2.78,0,0,1,.85-1.78,13.35,13.35,0,0,1-1.78-.31,7.36,7.36,0,0,1-1.63-.68,4.7,4.7,0,0,1-1.4-1.16,5.69,5.69,0,0,1-.91-1.83,8.89,8.89,0,0,1-.35-2.6,5,5,0,0,1,1.37-3.57A4.65,4.65,0,0,1,8,7.52a2.37,2.37,0,0,1,1.49.23,10,10,0,0,1,1.45.67c.31.18.55.34.74.47a12.55,12.55,0,0,1,6.66,0L19,8.47a8.85,8.85,0,0,1,1.6-.76A2.22,2.22,0,0,1,22,7.52a4.61,4.61,0,0,1,.14,3.54,5,5,0,0,1,1.37,3.57,9,9,0,0,1-.35,2.61,5.43,5.43,0,0,1-.92,1.82,4.87,4.87,0,0,1-1.41,1.16,7.17,7.17,0,0,1-1.63.68,13.35,13.35,0,0,1-1.78.31,3.09,3.09,0,0,1,.9,2.46v3.66a.71.71,0,0,0,.22.52.75.75,0,0,0,.69.12,13,13,0,0,0,6.56-4.81,12.93,12.93,0,0,0,2.55-7.84A13,13,0,0,0,26.54,8.64Z" />
</svg>
