<?xml version="1.0" encoding="UTF-8"?>
<svg width="81px" height="63px" viewBox="0 0 81 63" version="1.1" xmlns="http://www.w3.org/2000/svg" xmlns:xlink="http://www.w3.org/1999/xlink">
    <!-- Generator: Sketch 57.1 (83088) - https://sketch.com -->
    <title>Group 27</title>
    <desc>Created with Sketch.</desc>
    <defs>
        <polygon id="path-1" points="0.995227027 0.28314 31.6167297 0.28314 31.6167297 16.93274 0.995227027 16.93274"></polygon>
        <polygon id="path-3" points="0 62.8 80.7788919 62.8 80.7788919 0.2562 0 0.2562"></polygon>
    </defs>
    <g id="Final-Designs" stroke="none" stroke-width="1" fill="none" fill-rule="evenodd">
        <g id="Home-Page-[Desktop]" transform="translate(-678.000000, -1220.000000)">
            <g id="Group-27" transform="translate(678.000000, 1220.000000)">
                <polygon id="Fill-1" fill="#F2F7F9" points="19.0806452 47 22.0806452 47 22.0806452 44 19.0806452 44"></polygon>
                <polygon id="Fill-2" fill="#F2F7F9" points="14.0806452 47 17.0806452 47 17.0806452 44 14.0806452 44"></polygon>
                <polygon id="Fill-3" fill="#F2F7F9" points="8.08064516 47 11.0806452 47 11.0806452 44 8.08064516 44"></polygon>
                <polygon id="Fill-4" fill="#F2F7F9" points="70.0806452 47 73.0806452 47 73.0806452 44 70.0806452 44"></polygon>
                <polygon id="Fill-5" fill="#F2F7F9" points="64.0806452 47 67.0806452 47 67.0806452 44 64.0806452 44"></polygon>
                <polygon id="Fill-6" fill="#F2F7F9" points="58.0806452 47 61.0806452 47 61.0806452 44 58.0806452 44"></polygon>
                <polygon id="Fill-7" fill="#FF7149" points="75.9908659 27 65.0806452 8.30736217 67.1725503 7 78.0806452 25.6904369"></polygon>
                <polygon id="Fill-8" fill="#FF7149" points="55.1707662 27 53.0806452 25.6904369 63.9883979 7 66.0806452 8.30736217"></polygon>
                <g id="Group-26" transform="translate(0.080645, 0.000000)">
                    <g id="Group-11" transform="translate(49.162162, 25.400000)">
                        <mask id="mask-2" fill="white">
                            <use xlink:href="#path-1"></use>
                        </mask>
                        <g id="Clip-10"></g>
                        <path d="M3.5719027,2.81094 C4.20676757,9.30974 9.67536216,14.40714 16.3064162,14.40714 C22.9396595,14.40714 28.4060649,9.30974 29.0409297,2.81094 L3.5719027,2.81094 Z M16.3064162,16.93274 C7.8649027,16.93274 0.995227027,10.02914 0.995227027,1.54594 L0.995227027,0.28314 L31.6176054,0.28314 L31.6176054,1.54594 C31.6176054,10.02914 24.7501189,16.93274 16.3064162,16.93274 L16.3064162,16.93274 Z" id="Fill-9" fill="#FF7149" mask="url(#mask-2)"></path>
                    </g>
                    <polygon id="Fill-12" fill="#FF7149" points="25.4674946 27.60088 14.2325757 8.91628 16.388927 7.60948 27.6194676 26.29188"></polygon>
                    <polygon id="Fill-14" fill="#FF7149" points="5.15335135 27.60088 3.00137838 26.29188 14.2319189 7.60948 16.3882703 8.91628"></polygon>
                    <path d="M2.57711351,28.21094 C3.20978919,34.70974 8.67838378,39.80714 15.3094378,39.80714 C21.9426811,39.80714 27.4112757,34.70974 28.0439514,28.21094 L2.57711351,28.21094 Z M15.3094378,42.33274 C6.86792432,42.33274 0.000437837838,35.42914 0.000437837838,26.94594 L0.000437837838,25.68314 L30.6228162,25.68314 L30.6228162,26.94594 C30.6228162,35.42914 23.7531405,42.33274 15.3094378,42.33274 L15.3094378,42.33274 Z" id="Fill-16" fill="#FF7149"></path>
                    <mask id="mask-4" fill="white">
                        <use xlink:href="#path-3"></use>
                    </mask>
                    <g id="Clip-19"></g>
                    <polygon id="Fill-18" fill="#F2F7F9" mask="url(#mask-4)" points="43.3262432 55.9162 45.8416216 55.9162 45.8416216 13.5222 43.3262432 13.5222"></polygon>
                    <polygon id="Fill-20" fill="#F2F7F9" mask="url(#mask-4)" points="34.9416486 55.9162 37.4548378 55.9162 37.4548378 13.5222 34.9416486 13.5222"></polygon>
                    <polygon id="Fill-21" fill="#F2F7F9" mask="url(#mask-4)" points="47.0916486 9.527 72.4555946 9.527 72.4555946 7.0014 47.0916486 7.0014"></polygon>
                    <polygon id="Fill-22" fill="#F2F7F9" mask="url(#mask-4)" points="8.3232973 9.527 33.6806757 9.527 33.6806757 7.0014 8.3232973 7.0014"></polygon>
                    <path d="M16.5673459,60.2722 L64.2128595,60.2722 L64.2128595,59.852 C64.2128595,59.137 63.9348324,58.4682 63.4335081,57.9622 C62.9321838,57.4606 62.2644811,57.1834 61.5551838,57.1834 L19.2228324,57.1834 C18.5157243,57.1834 17.8480216,57.4606 17.3445081,57.9644 C16.8431838,58.4682 16.5673459,59.137 16.5673459,59.852 L16.5673459,60.2722 Z M66.7260486,62.8 L14.0541568,62.8 L14.0541568,59.852 C14.0541568,58.4638 14.5905081,57.1592 15.5668865,56.178 C16.5432649,55.1946 17.8436432,54.6534 19.2228324,54.6534 L61.5551838,54.6534 C62.9365622,54.6534 64.2347514,55.1946 65.2133189,56.178 C66.1896973,57.1592 66.7260486,58.4638 66.7260486,59.852 L66.7260486,62.8 Z" id="Fill-23" fill="#F2F7F9" mask="url(#mask-4)"></path>
                    <path d="M40.3898838,2.78422 C37.384127,2.78422 34.9409919,5.24162 34.9409919,8.26222 C34.9409919,11.28282 37.384127,13.73802 40.3898838,13.73802 C43.3956405,13.73802 45.8409649,11.28282 45.8409649,8.26222 C45.8409649,5.24162 43.3956405,2.78422 40.3898838,2.78422 M40.3898838,16.26802 C35.9961811,16.26802 32.4234243,12.67762 32.4234243,8.26222 C32.4234243,3.84682 35.9961811,0.25862 40.3898838,0.25862 C44.7835865,0.25862 48.3563432,3.84682 48.3563432,8.26222 C48.3563432,12.67762 44.7835865,16.26802 40.3898838,16.26802" id="Fill-24" fill="#F2F7F9" mask="url(#mask-4)"></path>
                    <polygon id="Fill-25" fill="#F2F7F9" mask="url(#mask-4)" points="38.9916486 9.527 41.7872432 9.527 41.7872432 7.0014 38.9916486 7.0014"></polygon>
                </g>
            </g>
        </g>
    </g>
</svg>