<?xml version="1.0" encoding="UTF-8"?>
<svg width="68px" height="67px" viewBox="0 0 68 67" version="1.1" xmlns="http://www.w3.org/2000/svg" xmlns:xlink="http://www.w3.org/1999/xlink">
    <!-- Generator: Sketch 57.1 (83088) - https://sketch.com -->
    <title>Group 25</title>
    <desc>Created with Sketch.</desc>
    <defs>
        <polygon id="path-1" points="0 66.8852459 67.2222295 66.8852459 67.2222295 0.0060804769 0 0.0060804769"></polygon>
    </defs>
    <g id="Final-Designs" stroke="none" stroke-width="1" fill="none" fill-rule="evenodd">
        <g id="Home-Page-[Desktop]" transform="translate(-1111.000000, -1224.000000)">
            <g id="Group-25" transform="translate(1111.000000, 1224.000000)">
                <polygon id="Fill-1" fill="#F3F6FB" points="0.5 8 0.5 59 31.1543893 59 31.1543893 56.6642618 2.82592458 56.6642618 2.82592458 10.3357382 65.1700233 10.3357382 65.1700233 56.6642618 36.8456107 56.6642618 36.8456107 59 67.5 59 67.5 8"></polygon>
                <path d="M0.5,10 L67.5,10 L67.5,0 L0.5,0 L0.5,10 Z M2.82592458,7.76415645 L65.1700233,7.76415645 L65.1700233,2.23584355 L2.82592458,2.23584355 L2.82592458,7.76415645 Z" id="Fill-2" fill="#F3F6FB"></path>
                <polygon id="Fill-3" fill="#F3F6FB" points="16.5 7 18.5 7 18.5 5 16.5 5"></polygon>
                <polygon id="Fill-4" fill="#F3F6FB" points="12.5 7 14.5 7 14.5 5 12.5 5"></polygon>
                <polygon id="Fill-5" fill="#F3F6FB" points="7.5 7 9.5 7 9.5 5 7.5 5"></polygon>
                <polygon id="Fill-6" fill="#F3F6FB" points="40.5 55 27.5 55 27.5 48 29.7089243 48 29.7089243 52.5537291 38.2929965 52.5537291 38.2929965 48 40.5 48"></polygon>
                <polygon id="Fill-7" fill="#F3F6FB" points="36.5 67 38.5 67 38.5 54 36.5 54"></polygon>
                <polygon id="Fill-8" fill="#F3F6FB" points="31.5 67 33.5 67 33.5 54 31.5 54"></polygon>
                <g id="Group-24" transform="translate(0.500000, 0.000000)">
                    <path d="M33.6109115,19.1551237 C25.6688131,19.1551237 19.2045508,25.5984024 19.2045508,33.519237 C19.2045508,41.4380447 25.6688131,47.8813234 33.6109115,47.8813234 C41.5530098,47.8813234 48.0152393,41.4380447 48.0152393,33.519237 C48.0152393,25.5984024 41.5530098,19.1551237 33.6109115,19.1551237 M33.6109115,50.2081192 C24.3800262,50.2081192 16.8709115,42.7210253 16.8709115,33.519237 C16.8709115,24.3154218 24.3800262,16.826301 33.6109115,16.826301 C42.8417967,16.826301 50.3509115,24.3154218 50.3509115,33.519237 C50.3509115,42.7210253 42.8417967,50.2081192 33.6109115,50.2081192" id="Fill-9" fill="#FF7149"></path>
                    <polygon id="Fill-11" fill="#FF7149" points="28.4417377 38.8098599 23.1361639 33.519845 28.4417377 28.2278033 30.0923607 29.8756125 26.4394426 33.519845 30.0923607 37.1640775"></polygon>
                    <polygon id="Fill-13" fill="#FF7149" points="38.7802885 38.8078331 37.1296656 37.1620507 40.7825836 33.519845 37.1296656 29.8756125 38.7802885 28.2278033 44.0858623 33.519845"></polygon>
                    <polygon id="Fill-15" fill="#FF7149" points="33.4163738 41.3156244 31.115259 40.9122861 33.8026033 25.7232548 36.1057508 26.1265931"></polygon>
                    <mask id="mask-2" fill="white">
                        <use xlink:href="#path-1"></use>
                    </mask>
                    <g id="Clip-18"></g>
                    <polygon id="Fill-17" fill="#F3F6FB" mask="url(#mask-2)" points="8.43606557 30.0233681 10.7697049 30.0233681 10.7697049 27.6965723 8.43606557 27.6965723"></polygon>
                    <polygon id="Fill-19" fill="#F3F6FB" mask="url(#mask-2)" points="8.43606557 34.6830402 10.7697049 34.6830402 10.7697049 32.3542176 8.43606557 32.3542176"></polygon>
                    <polygon id="Fill-20" fill="#F3F6FB" mask="url(#mask-2)" points="8.43606557 39.3406855 10.7697049 39.3406855 10.7697049 37.0138897 8.43606557 37.0138897"></polygon>
                    <polygon id="Fill-21" fill="#F3F6FB" mask="url(#mask-2)" points="56.4504918 30.0233681 58.7861639 30.0233681 58.7861639 27.6965723 56.4504918 27.6965723"></polygon>
                    <polygon id="Fill-22" fill="#F3F6FB" mask="url(#mask-2)" points="56.4504918 34.6830402 58.7861639 34.6830402 58.7861639 32.3542176 56.4504918 32.3542176"></polygon>
                    <polygon id="Fill-23" fill="#F3F6FB" mask="url(#mask-2)" points="56.4504918 39.3406855 58.7861639 39.3406855 58.7861639 37.0138897 56.4504918 37.0138897"></polygon>
                </g>
            </g>
        </g>
    </g>
</svg>