<svg width="30" height="30" viewBox="0 0 30 30">
  <title>Ali Website Assets</title>
  <path d="M26.13,6.31H3.87a2.11,2.11,0,0,0-2.11,2.1V21.59a2.11,2.11,0,0,0,2.11,2.1H26.13a2.11,2.11,0,0,0,2.11-2.1V8.41A2.11,2.11,0,0,0,26.13,6.31Zm1,16.44a.51.51,0,0,1-.37.15.53.53,0,0,1-.37-.15l-7.18-7.18a.54.54,0,0,1-.1-.16l-2.23,2a2.49,2.49,0,0,1-1.77.73,2.55,2.55,0,0,1-1.78-.72L11,15.32a.5.5,0,0,1-.13.25L3.65,22.75a.53.53,0,0,1-.37.15.55.55,0,0,1-.38-.15.54.54,0,0,1,0-.75l7.18-7.18a.52.52,0,0,1,.19-.11L2.93,8.15a.51.51,0,0,1,0-.74.52.52,0,0,1,.74,0L14,16.64a1.47,1.47,0,0,0,2.1,0L26.37,7.49h0a.52.52,0,0,1,.74,0,.51.51,0,0,1,0,.74l-7.26,6.47.11.07L27.09,22A.53.53,0,0,1,27.09,22.75Z" />
</svg>
