<svg
  xmlns="http://www.w3.org/2000/svg"
  xmlns:xlink="http://www.w3.org/1999/xlink"
  width="30"
  height="30"
  viewBox="0 0 30 30">
  <defs>
    <clipPath id="a">
      <path
        d="M26.72,5.37a10.14,10.14,0,0,1-3.24,1.22,5.1,5.1,0,0,0-8.8,3.46,5.4,5.4,0,0,0,.13,1.15A14.47,14.47,0,0,1,4.33,5.92,5,5,0,0,0,5.9,12.66,5,5,0,0,1,3.6,12v.07A4.88,4.88,0,0,0,4,13.93a5.09,5.09,0,0,0,3.73,3.12,5.41,5.41,0,0,1-1.34.18,5,5,0,0,1-1-.1,5.09,5.09,0,0,0,4.75,3.51A10.21,10.21,0,0,1,3.81,22.8a9.71,9.71,0,0,1-1.21-.07A14.51,14.51,0,0,0,10.4,25,14.19,14.19,0,0,0,24.53,13.68a13.86,13.86,0,0,0,.35-3c0-.21,0-.43,0-.65A10.16,10.16,0,0,0,27.4,7.37a10.17,10.17,0,0,1-2.92.79,5.09,5.09,0,0,0,2.24-2.79"
        style="fill:none;clip-rule:evenodd"
      />
    </clipPath>
  </defs>
  <title>Ali Website Assets</title>
  <g style="clip-path:url(#a)">
    <rect x="-2.4" width="34.8" height="30" />
  </g>
</svg>
