<?xml version="1.0" encoding="UTF-8"?>
<svg width="81px" height="68px" viewBox="0 0 81 68" version="1.1" xmlns="http://www.w3.org/2000/svg" xmlns:xlink="http://www.w3.org/1999/xlink">
    <!-- Generator: Sketch 57.1 (83088) - https://sketch.com -->
    <title>Group 29</title>
    <desc>Created with Sketch.</desc>
    <defs>
        <polygon id="path-1" points="0 68 80.4461134 68 80.4461134 0.232490119 0 0.232490119"></polygon>
    </defs>
    <g id="Final-Designs" stroke="none" stroke-width="1" fill="none" fill-rule="evenodd">
        <g id="Home-Page-[Desktop]" transform="translate(-251.000000, -1218.000000)">
            <g id="Group-29" transform="translate(251.000000, 1218.000000)">
                <polygon id="Fill-1" fill="#F2F7F9" points="39.0043478 7 41.0043478 7 41.0043478 5 39.0043478 5"></polygon>
                <polygon id="Fill-2" fill="#F2F7F9" points="35.0043478 64 45.0043478 64 45.0043478 62 35.0043478 62"></polygon>
                <g id="Group-28" transform="translate(0.004348, 0.000000)">
                    <path d="M58.1672855,67.9995807 L22.2809351,67.9995807 C18.2308139,67.9995807 14.9371929,64.7270337 14.9371929,60.7039602 L14.9371929,45.7060092 L17.3584152,45.7060092 L17.3584152,60.7039602 C17.3584152,63.397889 19.566806,65.5907681 22.2809351,65.5907681 L58.1672855,65.5907681 C60.8793074,65.5907681 63.085591,63.397889 63.085591,60.7039602 L63.085591,45.7060092 L65.5068133,45.7060092 L65.5068133,60.7039602 C65.5068133,64.7270337 62.2131923,67.9995807 58.1672855,67.9995807" id="Fill-3" fill="#F2F7F9"></path>
                    <path d="M65.5076562,22.5369632 L63.0864339,22.5369632 L63.0864339,7.53901217 C63.0864339,4.83879399 60.8801503,2.6438185 58.1681284,2.6438185 L22.2796708,2.6438185 C19.5655417,2.6438185 17.3571509,4.83879399 17.3571509,7.53901217 L17.3571509,22.5369632 L14.9380358,22.5369632 L14.9380358,7.53901217 C14.9380358,3.51174577 18.2295495,0.232909407 22.2796708,0.232909407 L58.1681284,0.232909407 C62.2140352,0.232909407 65.5076562,3.51174577 65.5076562,7.53901217 L65.5076562,22.5369632 Z" id="Fill-5" fill="#F2F7F9"></path>
                    <mask id="mask-2" fill="white">
                        <use xlink:href="#path-1"></use>
                    </mask>
                    <g id="Clip-8"></g>
                    <path d="M22.6549708,56.9685186 L57.7911426,56.9685186 L57.7911426,11.2639715 L22.6549708,11.2639715 L22.6549708,56.9685186 Z M20.2316412,59.3773312 L60.212365,59.3773312 L60.212365,8.85306245 L20.2316412,8.85306245 L20.2316412,59.3773312 Z" id="Fill-7" fill="#F2F7F9" mask="url(#mask-2)"></path>
                    <path d="M47.0528424,45.0737221 L44.6337273,45.0737221 C44.6337273,43.8997142 44.1743483,42.7990817 43.33988,41.9709869 C42.507519,41.142892 41.3991091,40.6858675 40.2232674,40.6858675 C39.0432113,40.6858675 37.9369086,41.142892 37.1045476,41.9709869 C36.2721866,42.7990817 35.8128076,43.8997142 35.8128076,45.0737221 L33.3915852,45.0737221 C33.3915852,43.2582027 34.1017262,41.5496019 35.3934662,40.266579 C36.6809917,38.983556 38.3983949,38.2770549 40.2232674,38.2770549 C42.0460327,38.2770549 43.7613286,38.983556 45.0530687,40.266579 C46.3427015,41.5496019 47.0528424,43.2582027 47.0528424,45.0737221" id="Fill-9" fill="#FF7149" mask="url(#mask-2)"></path>
                    <path d="M40.222846,28.3309018 C38.5665529,28.3309018 37.2179173,29.6747216 37.2179173,31.3225255 C37.2179173,32.968233 38.5665529,34.3099564 40.222846,34.3099564 C41.8770318,34.3099564 43.2277747,32.968233 43.2277747,31.3225255 C43.2277747,29.6747216 41.8770318,28.3309018 40.222846,28.3309018 M40.222846,36.718769 C37.2305608,36.718769 34.7966949,34.2973777 34.7966949,31.3225255 C34.7966949,28.3455769 37.2305608,25.9241856 40.222846,25.9241856 C43.2151312,25.9241856 45.6468898,28.3455769 45.6468898,31.3225255 C45.6468898,34.2973777 43.2151312,36.718769 40.222846,36.718769" id="Fill-10" fill="#FF7149" mask="url(#mask-2)"></path>
                    <path d="M40.222846,22.7417856 C33.9179746,22.7417856 28.7868376,27.8445271 28.7868376,34.1170836 C28.7868376,40.3896402 33.9179746,45.4944781 40.222846,45.4944781 C46.5277174,45.4944781 51.6567472,40.3896402 51.6567472,34.1170836 C51.6567472,27.8445271 46.5277174,22.7417856 40.222846,22.7417856 M40.222846,47.9011943 C32.5819824,47.9011943 26.3656152,41.7187848 26.3656152,34.1170836 C26.3656152,26.5153825 32.5819824,20.332973 40.222846,20.332973 C47.8637095,20.332973 54.0779695,26.5153825 54.0779695,34.1170836 C54.0779695,41.7187848 47.8637095,47.9011943 40.222846,47.9011943" id="Fill-11" fill="#FF7149" mask="url(#mask-2)"></path>
                    <polygon id="Fill-12" fill="#F2F7F9" mask="url(#mask-2)" points="59.0007002 32.7063874 72.139361 32.7063874 72.139361 30.2996711 59.0007002 30.2996711"></polygon>
                    <polygon id="Fill-13" fill="#F2F7F9" mask="url(#mask-2)" points="74.7692004 32.7063874 77.3969326 32.7063874 77.3969326 30.2996711 74.7692004 30.2996711"></polygon>
                    <polygon id="Fill-14" fill="#F2F7F9" mask="url(#mask-2)" points="59.0007002 37.9349154 72.139361 37.9349154 72.139361 35.5261028 59.0007002 35.5261028"></polygon>
                    <polygon id="Fill-15" fill="#F2F7F9" mask="url(#mask-2)" points="74.7692004 37.9349154 77.3969326 37.9349154 77.3969326 35.5261028 74.7692004 35.5261028"></polygon>
                    <polygon id="Fill-16" fill="#F2F7F9" mask="url(#mask-2)" points="67.2939662 27.4793268 58.9998573 27.4793268 58.9998573 25.0705142 66.2888112 25.0705142 72.9961661 18.3975371 74.7093547 20.0998485"></polygon>
                    <path d="M76.0830665,15.0971074 C75.0104798,15.0971074 74.1380811,15.9650346 74.1380811,17.032124 C74.1380811,18.0971074 75.0104798,18.9650441 76.0830665,18.9650441 C77.153546,18.9650441 78.0238375,18.0971074 78.0238375,17.032124 C78.0238375,15.9650346 77.153546,15.0971074 76.0830665,15.0971074 M76.0830665,21.3717603 C73.6744876,21.3717603 71.7168588,19.4241651 71.7168588,17.032124 C71.7168588,14.63589 73.6744876,12.6903911 76.0830665,12.6903911 C78.4895382,12.6903911 80.4450598,14.63589 80.4450598,17.032124 C80.4450598,19.4241651 78.4895382,21.3717603 76.0830665,21.3717603" id="Fill-17" fill="#F2F7F9" mask="url(#mask-2)"></path>
                    <polygon id="Fill-18" fill="#F2F7F9" mask="url(#mask-2)" points="72.9963768 49.8336952 66.289022 43.1628145 59.000068 43.1628145 59.000068 40.7540019 67.2941769 40.7540019 74.7074582 48.1313837"></polygon>
                    <path d="M76.0830665,49.2687039 C75.0104798,49.2687039 74.1380811,50.1345347 74.1380811,51.201624 C74.1380811,52.2666169 75.0104798,53.1345442 76.0830665,53.1345442 C77.153546,53.1345442 78.0238375,52.2666169 78.0238375,51.201624 C78.0238375,50.1345347 77.153546,49.2687039 76.0830665,49.2687039 M76.0830665,55.5412604 C73.6744876,55.5412604 71.7168588,53.5936651 71.7168588,51.201624 C71.7168588,48.80539 73.6744876,46.8598912 76.0830665,46.8598912 C78.4895382,46.8598912 80.4450598,48.80539 80.4450598,51.201624 C80.4450598,53.5936651 78.4895382,55.5412604 76.0830665,55.5412604" id="Fill-19" fill="#F2F7F9" mask="url(#mask-2)"></path>
                    <polygon id="Fill-20" fill="#F2F7F9" mask="url(#mask-2)" points="8.30675239 32.7063874 21.443306 32.7063874 21.443306 30.2996711 8.30675239 30.2996711"></polygon>
                    <polygon id="Fill-21" fill="#F2F7F9" mask="url(#mask-2)" points="3.0491808 32.7063874 5.67691297 32.7063874 5.67691297 30.2996711 3.0491808 30.2996711"></polygon>
                    <polygon id="Fill-22" fill="#F2F7F9" mask="url(#mask-2)" points="8.30675239 37.9349154 21.443306 37.9349154 21.443306 35.5261028 8.30675239 35.5261028"></polygon>
                    <polygon id="Fill-23" fill="#F2F7F9" mask="url(#mask-2)" points="3.0491808 37.9349154 5.67691297 37.9349154 5.67691297 35.5261028 3.0491808 35.5261028"></polygon>
                    <polygon id="Fill-24" fill="#F2F7F9" mask="url(#mask-2)" points="21.4428846 27.4793268 13.1508829 27.4793268 5.73760157 20.0998485 7.44868299 18.3975371 14.1560378 25.0705142 21.4428846 25.0705142"></polygon>
                    <path d="M4.36473268,15.0971074 C3.29214593,15.0971074 2.42185452,15.9650346 2.42185452,17.032124 C2.42185452,18.0971074 3.29214593,18.9650441 4.36473268,18.9650441 C5.43521218,18.9650441 6.30550359,18.0971074 6.30550359,17.032124 C6.30550359,15.9650346 5.43521218,15.0971074 4.36473268,15.0971074 M4.36473268,21.3717603 C1.95615379,21.3717603 0.000632172937,19.4241651 0.000632172937,17.032124 C0.000632172937,14.63589 1.95615379,12.6903911 4.36473268,12.6903911 C6.77120432,12.6903911 8.72672594,14.63589 8.72672594,17.032124 C8.72672594,19.4241651 6.77120432,21.3717603 4.36473268,21.3717603" id="Fill-25" fill="#F2F7F9" mask="url(#mask-2)"></path>
                    <polygon id="Fill-26" fill="#F2F7F9" mask="url(#mask-2)" points="7.44952588 49.8336952 5.73844447 48.1313837 13.1517258 40.7540019 21.4437275 40.7540019 21.4437275 43.1628145 14.1568807 43.1628145"></polygon>
                    <path d="M4.36473268,49.2687039 C3.29214593,49.2687039 2.42185452,50.1345347 2.42185452,51.201624 C2.42185452,52.2666169 3.29214593,53.1345442 4.36473268,53.1345442 C5.43521218,53.1345442 6.30550359,52.2666169 6.30550359,51.201624 C6.30550359,50.1345347 5.43521218,49.2687039 4.36473268,49.2687039 M4.36473268,55.5412604 C1.95615379,55.5412604 0.000632172937,53.5936651 0.000632172937,51.201624 C0.000632172937,48.80539 1.95615379,46.8598912 4.36473268,46.8598912 C6.77120432,46.8598912 8.72672594,48.80539 8.72672594,51.201624 C8.72672594,53.5936651 6.77120432,55.5412604 4.36473268,55.5412604" id="Fill-27" fill="#F2F7F9" mask="url(#mask-2)"></path>
                </g>
            </g>
        </g>
    </g>
</svg>